<svg data-v-423bf9ae="" xmlns="http://www.w3.org/2000/svg" viewBox="0 0 136.00715947295706 60" class="font"><!----><!----><!----><g data-v-423bf9ae="" id="10d5d5f2-b8f9-4460-90fe-38d25ac41503" fill="black" transform="matrix(5.371530849613673,0,0,5.371530849613673,-4.082363275992805,-95.3446725806427)"><path d="M14.14 28.43L13.89 28.92L9.77 28.92L9.77 28.56L11.09 27.52L11.09 19.57L7.31 28.91L6.62 28.91L2.87 19.46L2.87 27.65L4.33 28.42L4.09 28.91L0.88 28.91L0.88 28.55L2.20 27.51L2.20 19.21L0.76 18.38L0.99 17.89L3.85 17.89L7.41 26.89L10.98 17.89L14.01 17.89L14.01 18.26L12.68 19.29L12.68 27.87L14.14 28.43ZM26.08 28.43L25.84 28.92L23.32 28.92L20.16 23.93L19.50 23.44L19.68 23.07L20.50 23.07L20.50 23.07Q21.49 23.07 22.06 22.59L22.06 22.59L22.06 22.59Q22.64 22.11 22.64 21.25L22.64 21.25L22.64 21.25Q22.64 20.12 22.01 19.36L22.01 19.36L22.01 19.36Q21.38 18.61 20.16 18.61L20.16 18.61L20.16 18.61Q19.35 18.61 18.68 19.08L18.68 19.08L18.68 27.90L20.13 28.42L19.89 28.91L15.78 28.91L15.78 28.55L17.09 27.52L17.09 18.89L15.65 18.38L15.89 17.89L17.37 17.89L17.37 17.89Q18.65 17.89 19.91 17.81L19.91 17.81L19.91 17.81Q20.80 17.75 21.25 17.75L21.25 17.75L21.25 17.75Q22.16 17.75 22.88 18.13L22.88 18.13L22.88 18.13Q23.59 18.51 23.98 19.15L23.98 19.15L23.98 19.15Q24.37 19.78 24.37 20.55L24.37 20.55L24.37 20.55Q24.37 21.25 23.93 21.90L23.93 21.90L23.93 21.90Q23.48 22.54 22.77 23.01L22.77 23.01L22.77 23.01Q22.06 23.48 21.28 23.72L21.28 23.72L22.16 24.02L24.40 27.57L26.08 28.43Z"></path></g><!----><!----></svg>