<?xml version="1.0" encoding="utf-8"?>
<!-- Generator: Adobe Illustrator 24.1.1, SVG Export Plug-In . SVG Version: 6.00 Build 0)  -->
<svg version="1.1" id="Layer_1" xmlns="http://www.w3.org/2000/svg" xmlns:xlink="http://www.w3.org/1999/xlink" x="0px" y="0px"
	 viewBox="0 0 512 512" style="enable-background:new 0 0 512 512;" xml:space="preserve">
<style type="text/css">
	.st0{fill:#F26522;}
	.st1{fill:#FFFFFF;}
</style>
<g>
	<rect class="st0" width="512" height="512"/>
	<path class="st1" d="M211.1,319.9h78.3v-21.3h-54.1v-33h49.9v-21.3h-49.9v-30.9h54.1v-21.3h-78.3V319.9z M394,285.2
		c0-25.5-1.7-31.1-36.1-39.3c-22.1-5.4-22.5-5.8-22.5-20.3c0-11.1,2.9-14.6,19.2-14.6c11.1,0,23.6,1.5,34.2,3.8l2.7-20.3
		c-12.7-2.9-26.1-4.2-37.2-4.2c-32.4,0-43,11.5-43,34.7c0,27.1,4.2,33,35.1,39.9c23,5,23.4,6.1,23.4,20.3c0,12.3-2.9,15.9-20.3,15.9
		c-12.7,0-24.2-2.3-36.1-6l-4.2,19c8.4,4,25.3,7.7,39.9,7.7C386.9,321.8,394,309.4,394,285.2z M438.5,237.6
		c0-19.6,9.4-23.4,32.1-23.4c4,0,12.5,0.6,18,1.7l1.5-19.6c-5.8-1.3-15-2.3-22.1-2.3c-34.9,0-53,10.7-53,44.5v46.6
		c0,22.1,6.5,36.7,39.5,36.7c30.1,0,39.3-15,39.3-34.9v-9.2c0-22.1-9.4-31.7-32.6-31.7c-8.3,0-16.1,1.2-22.8,3.5V237.6z
		 M457.7,266.2c8.4,0,12.9,2.9,12.9,12.1v9.4c0,9.8-3.8,14-15.9,14s-16.1-3.5-16.1-14v-17.5C443.9,267.9,450.8,266.2,457.7,266.2z"
		/>
</g>
</svg>
