<?xml version="1.0" encoding="utf-8"?>
<!-- Generator: Adobe Illustrator 24.1.1, SVG Export Plug-In . SVG Version: 6.00 Build 0)  -->
<svg version="1.1" id="Layer_1" xmlns="http://www.w3.org/2000/svg" xmlns:xlink="http://www.w3.org/1999/xlink" x="0px" y="0px"
	 viewBox="0 0 512 512" style="enable-background:new 0 0 512 512;" xml:space="preserve">
<style type="text/css">
	.st0{fill:#999999;}
	.st1{fill:#89D96D;}
</style>
<g>
	<path class="st0" d="M260.3,292.4c0,10.6-7.8,19.3-18,20.6c-12.1,28.1-36.6,55.6-70.3,75c-28.3,16.3-58.2,24.3-85.1,24.3
		c-34.2,0-63.3-12.9-77.7-37.8c-23.4-40.5-0.6-97,53.4-135.2c0,8.7,0.7,16.7,2.2,23.8c-4.4,3.7-8.3,6.8-12.2,10.9
		c-9.9,10.4-17.9,21.2-23.3,32.7c-10.1,21.5-10.8,41.8-1.9,57.2c10,17.4,31.7,27.3,59.6,27.3c24.1,0,50.6-7.6,74.6-21.5
		c14-8.1,26.4-17.7,36.9-28.8c9.9-10.4,17.7-21.6,23.2-33.1c0.5-1,0.9-2,1.4-3c-2.7-3.5-4.3-7.9-4.3-12.6c0-11.5,9.3-20.8,20.8-20.8
		S260.3,280.9,260.3,292.4z M167.3,99.7c46.5,0,85,49.1,92,113.3c-7.3-4.4-14.8-8-22.8-10.9c-0.9-5-2.1-9.8-3.5-14.6
		c-4.1-13.8-9.8-26.1-17.1-36.6c-13.6-19.5-30.8-30.3-48.6-30.3s-35.1,10.8-48.6,30.3c-7.3,10.5-13,22.8-17.1,36.6
		c-4.3,14.6-6.5,30.2-6.5,46.3s2.2,31.7,6.5,46.3c4.1,13.8,9.8,26.1,17.1,36.6c0.8,1.1,1.5,2.1,2.3,3.2c1.2-0.2,2.5-0.4,3.8-0.4
		c11.5,0,20.8,9.3,20.8,20.8s-9.3,20.8-20.8,20.8c-11.5,0-20.8-9.3-20.8-20.8c0-2.4,0.4-4.6,1.1-6.7c-19-24.6-30.9-60.2-30.9-99.9
		C74.2,159.8,115.9,99.7,167.3,99.7z M247.6,391.3c25.5,0,45.9-8.4,56.9-23.2c6.4,3.4,13.4,5.4,20.9,6.4
		c-14.5,24.7-43.8,37.7-77.7,37.7c-21,0-43.9-4.9-66.4-14.8c8.8-4.8,16.5-9.5,22.3-13.8C218.3,388.6,233.3,391.3,247.6,391.3z
		 M282,273.7c-10.5-11-22.9-20.7-36.9-28.8c-24-13.8-50.5-21.5-74.6-21.5h0c-5.3,0-10.3,0.4-15.1,1.1l-0.4,0.1
		c-2.2,9.2-10.4,16-20.3,16c-11.5,0-20.8-9.3-20.8-20.8c0-11.5,9.3-20.8,20.8-20.8c5.4,0,10.3,2.1,14,5.4l0.1,0
		c6.9-1.2,14.1-1.8,21.6-1.8c26.9,0,56.8,8,85.1,24.3c46.5,26.8,75.7,68.9,78.5,107c-8.4-1-15.6-3.8-22.2-7.4
		c-1.3-6.4-3.6-12.9-6.7-19.7C299.8,295.2,292,284.1,282,273.7z"/>
	<path class="st1" d="M494.5,242c9.2,13.9-9.6,24.8-18,10.8c-5.1-8.8-13-16.9-23.3-24.1c-10.5-7.3-22.8-13-36.6-17.1
		c-14.6-4.3-30.2-6.5-46.3-6.5c-16.1,0-31.7,2.2-46.3,6.5c-2.5,0.7-5,1.5-7.4,2.4c-0.3,11.2-9.5,20.3-20.8,20.3
		c-11.5,0-20.8-9.3-20.8-20.8s9.3-20.8,20.8-20.8c3.8,0,7.4,1,10.5,2.8c19-7.2,40.9-11.3,64.1-11.3
		C426.4,184.2,474.4,208.1,494.5,242z M512,292.4c0,10.4-7.7,19.1-17.7,20.6c-20.2,33.7-68.1,57.5-124,57.5
		c-43.7,0-82.5-14.5-107-36.9c-11.9-11.9,2.4-25.8,13.5-16.1c3.2,3,6.7,5.8,10.6,8.5c10.5,7.3,22.8,13,36.6,17.1
		c14.6,4.3,30.2,6.5,46.3,6.5c16.1,0,31.7-2.2,46.3-6.5c13.8-4.1,26.1-9.8,36.6-17.1c9.1-6.3,16.3-13.4,21.4-21
		c-2.6-3.5-4.2-7.8-4.2-12.6c0-11.5,9.3-20.8,20.8-20.8C502.7,271.5,512,280.9,512,292.4z"/>
</g>
</svg>
