<svg id="Capa_1" enable-background="new 0 0 512 512" height="512" viewBox="0 0 512 512" width="512" xmlns="http://www.w3.org/2000/svg"><path d="m26.385 358.385c17.016-17.015 39.607-26.387 63.615-26.385 17.983 0 54.182-29.223 66.561-59.105 3.579-8.642 6.366-20.426-.688-27.48-7.396-7.398-8.17-8.168-8.194-8.193-.03-.029-.06-.059-.09-.09-23.394-23.393-23.393-61.459.002-84.854l63.031-63.031c5.856-5.857 15.355-5.859 21.213 0l190.92 190.918c5.858 5.857 5.858 15.355 0 21.214l-63.033 63.032c-11.298 11.297-26.365 17.52-42.427 17.52-.001 0 0 0-.001 0-16.06 0-31.128-6.223-42.442-17.535-.042-.041-.63-.631-8.267-8.27-2.997-2.996-6.674-4.393-11.572-4.393-29.428 0-75.013 46.683-75.013 70.267 0 49.623-40.373 89.998-89.999 90-.001 0-.001 0-.001 0-24.009 0-46.602-9.371-63.614-26.387-17.016-17.013-26.386-39.605-26.386-63.613 0-24.007 9.37-46.601 26.385-63.615z" fill="#ffe470"/><path d="m327.295 184.706 95.46 95.459c5.858 5.857 5.858 15.355 0 21.214l-63.033 63.032c-11.298 11.297-26.365 17.52-42.427 17.52-.001 0 0 0-.001 0-16.06 0-31.128-6.223-42.442-17.535-.042-.041-.63-.631-8.267-8.27-2.997-2.996-6.674-4.393-11.572-4.393-29.428 0-75.013 46.683-75.013 70.267 0 49.623-40.373 89.998-89.999 90-.001 0-.001 0-.001 0-24.009 0-46.602-9.371-63.613-26.387z" fill="#fabe2c"/><path d="m210.622 89.247 84.854-84.854c5.857-5.857 15.355-5.857 21.213 0l190.918 190.918c5.858 5.858 5.858 15.355 0 21.213l-84.854 84.855z" fill="#f37"/><path d="m512 205.922c-.001 3.838-1.466 7.674-4.394 10.602l-84.854 84.855-106.063-106.066 95.46-95.461 95.458 95.459c2.928 2.928 4.393 6.764 4.394 10.602v.009z" fill="#cc295f"/><circle cx="90" cy="422" fill="#f37" r="15"/><path d="m90 437c-4.143 0-7.893-1.678-10.606-4.393l21.213-21.213c2.714 2.714 4.393 6.464 4.393 10.606 0 8.286-6.716 15-15 15z" fill="#cc295f"/></svg>